<?xml version="1.0" encoding="utf-8"?>
<!-- Generator: Adobe Illustrator 16.0.4, SVG Export Plug-In . SVG Version: 6.00 Build 0)  -->
<!DOCTYPE svg PUBLIC "-//W3C//DTD SVG 1.1//EN" "http://www.w3.org/Graphics/SVG/1.1/DTD/svg11.dtd">
<svg version="1.1" id="Layer_1" xmlns="http://www.w3.org/2000/svg" xmlns:xlink="http://www.w3.org/1999/xlink" x="0px" y="0px"
	 width="141.891px" height="28.365px" viewBox="0 0 141.891 28.365" enable-background="new 0 0 141.891 28.365"
	 xml:space="preserve">
<g>
	<path fill="#FFFFFF" d="M3.047,1.355v9.367l6.012-9.367h3.187L6.571,9.939l5.844,12.443H8.892l-4.39-9.648l-1.456,2.013v7.635H0
		V1.355H3.047z"/>
	<path fill="#FFFFFF" d="M23.214,22.018c0,0-1.678,0.531-3.774,0.531c-2.573,0-3.943-0.811-4.81-1.9
		c-1.034-1.287-1.482-3.244-1.482-5.873c0-4.754,1.482-8.053,5.592-8.053c1.874,0,3.328,0.699,4.194,2.152
		c0.952,1.594,0.952,3.692,0.952,6.739h-7.634c0,3.188,1.035,4.642,3.467,4.642c1.621,0,3.299-0.644,3.299-0.644h0.196V22.018z
		 M20.837,13.462c0-2.796-0.418-4.531-2.181-4.531c-1.845,0-2.292,1.958-2.404,4.531H20.837z"/>
	<path fill="#FFFFFF" d="M29.905,0.712v21.67h-3.02V0.712H29.905z"/>
	<path fill="#FFFFFF" d="M36.45,0.712v21.67H33.43V0.712H36.45z"/>
	<path fill="#FFFFFF" d="M44.591,27.61h-2.993l1.874-5.424L38.831,7.031h3.355l2.937,10.988l3.02-10.988h2.711L44.591,27.61z"/>
	<path fill="#FFFFFF" d="M63.364,1.355l4.781,16.439l4.726-16.439h4.055v21.027h-3.021V5.129l-4.587,16.469h-2.797L61.936,5.129
		v17.253h-2.683V1.355H63.364z"/>
	<path fill="#FFFFFF" d="M90.161,22.018c0,0-1.68,0.531-3.774,0.531c-2.572,0-3.943-0.811-4.812-1.9
		c-1.031-1.287-1.482-3.244-1.482-5.873c0-4.754,1.482-8.053,5.593-8.053c1.876,0,3.328,0.699,4.196,2.152
		c0.949,1.594,0.949,3.692,0.949,6.739h-7.632c0,3.188,1.034,4.642,3.465,4.642c1.621,0,3.301-0.644,3.301-0.644h0.196V22.018z
		 M87.785,13.462c0-2.796-0.42-4.531-2.182-4.531c-1.847,0-2.296,1.958-2.404,4.531H87.785z"/>
	<path fill="#FFFFFF" d="M101.13,22.27c0,0-0.952,0.251-2.295,0.251c-1.704,0-2.909-0.391-3.578-1.427
		c-0.588-0.922-0.588-2.04-0.588-3.522v-8.08h-2.264V7.2h2.264V3.367l3.02-0.838V7.2h3.441v2.292h-3.441v8.08
		c0,0.923,0,1.511,0.253,1.984c0.252,0.448,0.671,0.645,1.37,0.645c0.837,0,1.65-0.279,1.65-0.279h0.168V22.27z"/>
	<path fill="#FFFFFF" d="M112.318,9.548l-5.844,10.541h5.896v2.293h-9.194v-2.489l5.758-10.401h-7.95V7.2h11.334V9.548z"/>
	<path fill="#FFFFFF" d="M118.251,0.712v21.67h-3.019V0.712H118.251z"/>
	<path fill="#FFFFFF" d="M131.258,22.018c0,0-1.678,0.531-3.774,0.531c-2.571,0-3.943-0.811-4.808-1.9
		c-1.037-1.287-1.482-3.244-1.482-5.873c0-4.754,1.482-8.053,5.591-8.053c1.874,0,3.329,0.699,4.195,2.152
		c0.951,1.594,0.951,3.692,0.951,6.739h-7.634c0,3.188,1.032,4.642,3.467,4.642c1.62,0,3.298-0.644,3.298-0.644h0.196V22.018z
		 M128.882,13.462c0-2.796-0.42-4.531-2.181-4.531c-1.845,0-2.293,1.958-2.404,4.531H128.882z"/>
	<path fill="#FFFFFF" d="M141.891,9.939c0,0-0.614-0.139-1.314-0.139c-2.519,0-2.572,1.873-2.572,3.047v9.536h-3.076V7.031h2.266
		l0.669,2.518c0.477-2.126,1.875-2.658,3.748-2.658h0.28V9.939z"/>
</g>
<g>
</g>
<g>
</g>
<g>
</g>
<g>
</g>
<g>
</g>
<g>
</g>
<g>
</g>
<g>
</g>
<g>
</g>
<g>
</g>
<g>
</g>
<g>
</g>
<g>
</g>
<g>
</g>
<g>
</g>
</svg>
